<svg viewBox="0 0 1024 1024"><path d="M924.8 625.6l-78.4-14.4c-4.8-22.4-12.8-44.8-22.4-64l48-62.4c16-20.8 14.4-51.2-4.8-70.4l-76.8-76.8c-19.2-19.2-49.6-20.8-70.4-4.8l-62.4 48c-19.2-9.6-40-17.6-64-22.4l-14.4-78.4c-4.8-27.2-27.2-46.4-54.4-46.4h-108.8c-27.2 0-49.6 19.2-54.4 46.4l-14.4 78.4c-22.4 4.8-44.8 12.8-64 22.4l-62.4-48c-20.8-16-51.2-14.4-70.4 4.8l-76.8 76.8c-19.2 19.2-20.8 49.6-4.8 70.4l48 62.4c-9.6 19.2-17.6 40-22.4 64l-78.4 14.4c-27.2 4.8-46.4 27.2-46.4 54.4v108.8c0 27.2 19.2 49.6 46.4 54.4l78.4 14.4c4.8 22.4 12.8 44.8 22.4 64l-48 62.4c-16 20.8-14.4 51.2 4.8 70.4l76.8 76.8c19.2 19.2 49.6 20.8 70.4 4.8l62.4-48c19.2 9.6 40 17.6 64 22.4l14.4 78.4c4.8 27.2 27.2 46.4 54.4 46.4h108.8c27.2 0 49.6-19.2 54.4-46.4l14.4-78.4c22.4-4.8 44.8-12.8 64-22.4l62.4 48c20.8 16 51.2 14.4 70.4-4.8l76.8-76.8c19.2-19.2 20.8-49.6 4.8-70.4l-48-62.4c9.6-19.2 17.6-40 22.4-64l78.4-14.4c27.2-4.8 46.4-27.2 46.4-54.4v-108.8c0-27.2-19.2-49.6-46.4-54.4zM512 688c-96 0-176-80-176-176s80-176 176-176 176 80 176 176-80 176-176 176z"/></svg>