<svg viewBox="0 0 1024 1024"><path d="M512 224c-159 0-288 129-288 288s129 288 288 288 288-129 288-288-129-288-288-288z m0 480c-106 0-192-86-192-192s86-192 192-192 192 86 192 192-86 192-192 192z"/><path d="M867.2 422.4l-88-14.4c-4.8-19.2-12.8-38.4-22.4-57.6l52.8-67.2c16-20.8 14.4-51.2-4.8-70.4l-67.2-67.2c-19.2-19.2-49.6-20.8-70.4-4.8l-67.2 52.8c-19.2-9.6-38.4-17.6-57.6-22.4l-14.4-88c-4.8-27.2-27.2-46.4-54.4-46.4h-96c-27.2 0-49.6 19.2-54.4 46.4l-14.4 88c-19.2 4.8-38.4 12.8-57.6 22.4l-67.2-52.8c-20.8-16-51.2-14.4-70.4 4.8l-67.2 67.2c-19.2 19.2-20.8 49.6-4.8 70.4l52.8 67.2c-9.6 19.2-17.6 38.4-22.4 57.6l-88 14.4c-27.2 4.8-46.4 27.2-46.4 54.4v96c0 27.2 19.2 49.6 46.4 54.4l88 14.4c4.8 19.2 12.8 38.4 22.4 57.6l-52.8 67.2c-16 20.8-14.4 51.2 4.8 70.4l67.2 67.2c19.2 19.2 49.6 20.8 70.4 4.8l67.2-52.8c19.2 9.6 38.4 17.6 57.6 22.4l14.4 88c4.8 27.2 27.2 46.4 54.4 46.4h96c27.2 0 49.6-19.2 54.4-46.4l14.4-88c19.2-4.8 38.4-12.8 57.6-22.4l67.2 52.8c20.8 16 51.2 14.4 70.4-4.8l67.2-67.2c19.2-19.2 20.8-49.6 4.8-70.4l-52.8-67.2c9.6-19.2 17.6-38.4 22.4-57.6l88-14.4c27.2-4.8 46.4-27.2 46.4-54.4v-96c0-27.2-19.2-49.6-46.4-54.4z"/></svg>