<svg viewBox="0 0 1024 1024"><path d="M864 352h-96c12.8-19.2 20.8-41.6 20.8-67.2 0-70.4-57.6-128-128-128-35.2 0-67.2 14.4-92.8 36.8L512 256l-56-62.4c-25.6-22.4-57.6-36.8-92.8-36.8-70.4 0-128 57.6-128 128 0 25.6 8 48 20.8 67.2H160c-35.2 0-64 28.8-64 64v48c0 35.2 28.8 64 64 64v224c0 70.4 57.6 128 128 128h448c70.4 0 128-57.6 128-128V528c35.2 0 64-28.8 64-64v-48c0-35.2-28.8-64-64-64zM320 240c12.8 0 24 4.8 33.6 14.4L416 320H320c-35.2 0-64-28.8-64-64s28.8-64 64-64z m336 14.4c9.6-9.6 20.8-14.4 33.6-14.4 35.2 0 64 28.8 64 64s-28.8 64-64 64h-96l62.4-113.6z"/></svg>