<svg viewBox="0 0 1024 1024"><path d="M832 464h-68.8l-29.6-71.2 48.8-48.8c18.4-18.4 18.4-48 0-66.4l-56.8-56.8c-18.4-18.4-48-18.4-66.4 0l-48.8 48.8-71.2-29.6V160c0-26.4-21.6-48-48-48h-80c-26.4 0-48 21.6-48 48v68.8l-71.2 29.6-48.8-48.8c-18.4-18.4-48-18.4-66.4 0l-56.8 56.8c-18.4 18.4-18.4 48 0 66.4l48.8 48.8-29.6 71.2H160c-26.4 0-48 21.6-48 48v80c0 26.4 21.6 48 48 48h68.8l29.6 71.2-48.8 48.8c-18.4 18.4-18.4 48 0 66.4l56.8 56.8c18.4 18.4 48 18.4 66.4 0l48.8-48.8 71.2 29.6V864c0 26.4 21.6 48 48 48h80c26.4 0 48-21.6 48-48v-68.8l71.2-29.6 48.8 48.8c18.4 18.4 48 18.4 66.4 0l56.8-56.8c18.4-18.4 18.4-48 0-66.4l-48.8-48.8 29.6-71.2H864c26.4 0 48-21.6 48-48v-80c0-26.4-21.6-48-48-48zM512 640c-70.4 0-128-57.6-128-128s57.6-128 128-128 128 57.6 128 128-57.6 128-128 128z"/></svg>